# ProBuilder 4.0.5
# https://unity3d.com/unity/features/worldbuilding/probuilder
# 25.01.2020 14:31:38

mtllib ./Pyramid.mtl
o Pyramid

g Pyramid
v 0.5 -0.5 0.5
v -0.5 -0.5 0.5
v 1.788139E-07 0.5 1.788139E-07
v -0.5 -0.5 -0.5
v 0.5 -0.5 -0.5

vt 0 0
vt -1 0
vt -0.4999998 1.118034
vt -0.5000002 1.118034
vt 0 -0.4472134
vt -1 -0.4472134
vt -0.4999998 0.6708204
vt -0.5000002 0.6708204
vt 1 -0.4472134
vt 0.5000002 0.6708204
vt 0.4999998 0.6708204
vt 1 0
vt 0.5000002 1.118034
vt 0.4999998 1.118034
vt 0 -1
vt -1 -1

vn 0 0.4472135 0.8944273
vn 0 0.2236067 0.4472136
vn 0 0 0
vn -0.8944273 0.4472135 0
vn -0.4472136 0.2236067 0
vn 0 0.4472135 -0.8944273
vn 0 0.2236067 -0.4472136
vn 0.8944273 0.4472135 0
vn 0.4472136 0.2236067 0
vn 0 -1 0

g Pyramid
usemtl Lit
f 3/3/2 3/4/3 2/2/2 1/1/1
f 3/7/5 3/8/3 4/6/5 2/5/4
f 3/10/7 3/11/3 5/5/7 4/9/6
f 3/13/9 3/14/3 1/1/9 5/12/8
f 3/1/3 3/1/3 3/1/3 3/1/3
f 1/1/10 2/2/10 4/16/10 5/15/10

